<svg width="500" height="500" viewBox="0 0 921 583" fill="none" xmlns="http://www.w3.org/2000/svg">
<path d="M917.331 97.1395C918.275 161.145 919.22 225.154 920.164 289.163C921.038 348.186 912.75 408.596 904.079 467.136C900.279 492.78 895.155 519.892 877.607 538.974C863.955 553.822 844.372 561.85 824.758 566.545C796.739 573.251 767.692 574.033 738.891 574.782C527.447 580.283 315.872 585.782 104.447 579.583C83.604 578.975 58.0548 575.023 50.9822 555.407C38.2864 520.188 89.6995 480.754 116.389 468.674C148.679 454.06 185.016 451.061 220.458 451.661C243.695 452.054 267.958 453.715 289.151 444.181C313.848 433.065 329.7 408.878 343.31 385.462C359.027 358.423 374.19 335.878 398.852 316.378C422.327 297.815 448.661 282.584 477.247 273.454C504.403 264.783 533.008 261.714 560.649 254.752C588.291 247.788 616.049 236.129 634.385 214.301C648.97 196.937 658.33 175.329 671.685 156.917C685.494 137.881 700.89 120.002 717.635 103.493C751.554 70.0515 791.032 42.2145 834.08 21.7974C846.317 15.9949 859.182 10.6946 872.716 10.1736C885.479 9.67954 890.613 10.4755 903.323 22.2724C904.918 23.7536 906.343 25.4252 907.427 27.3136C911.637 34.6505 914.769 44.0999 915.51 52.1367C916.886 67.0906 917.108 82.1232 917.331 97.1395Z" fill="#BCB4F3"/>
<path d="M413.406 393.541C413.406 393.541 475.485 400.215 510.294 442.68C545.106 485.148 539.466 547.33 539.466 547.33C539.466 547.33 477.387 540.656 442.578 498.191C407.766 455.723 413.406 393.541 413.406 393.541Z" fill="#3065B0"/>
<mask id="mask0_3899_27530" style="mask-type:luminance" maskUnits="userSpaceOnUse" x="413" y="393" width="127" height="155">
<path d="M413.06 393.538H539.457V547.324H413.06V393.538Z" fill="white"/>
</mask>
<g mask="url(#mask0_3899_27530)">
<g opacity="0.199997">
<path d="M539.457 547.328C539.457 547.328 477.378 540.655 442.569 498.189C407.757 455.721 413.397 393.539 413.397 393.539" fill="#231F20"/>
</g>
</g>
<path d="M540.429 546.367C505.093 503.261 469.757 460.152 434.424 417.049C433.317 415.698 431.406 417.625 432.506 418.968C467.839 462.071 503.174 505.18 538.51 548.288C539.617 549.637 541.528 547.707 540.429 546.367Z" fill="#343C76"/>
<path d="M502.576 500.972C488.461 499.571 474.348 498.174 460.233 496.776C458.496 496.605 458.507 499.319 460.233 499.49C474.348 500.888 488.461 502.285 502.576 503.686C504.313 503.854 504.302 501.14 502.576 500.972Z" fill="#343C76"/>
<path d="M473.843 465.911C459.728 464.511 445.615 463.116 431.497 461.715C429.763 461.544 429.774 464.258 431.497 464.429C445.615 465.83 459.728 467.225 473.843 468.625C475.58 468.796 475.569 466.079 473.843 465.911Z" fill="#343C76"/>
<path d="M476.677 424.922C475.28 439.037 473.879 453.15 472.482 467.268C472.311 469.002 475.025 468.991 475.196 467.268C476.593 453.15 477.994 439.037 479.391 424.922C479.562 423.185 476.848 423.196 476.677 424.922Z" fill="#343C76"/>
<path d="M505.416 459.984C504.018 474.096 502.621 488.211 501.22 502.329C501.049 504.064 503.766 504.05 503.934 502.329C505.335 488.211 506.732 474.096 508.13 459.984C508.301 458.247 505.587 458.258 505.416 459.984Z" fill="#343C76"/>
<path d="M809.642 169.545C809.642 169.545 811.789 231.944 774.654 272.396C737.519 312.845 675.163 316.025 675.163 316.025C675.163 316.025 673.016 253.626 710.151 213.177C747.287 172.729 809.642 169.545 809.642 169.545Z" fill="#3065B0"/>
<mask id="mask1_3899_27530" style="mask-type:luminance" maskUnits="userSpaceOnUse" x="675" y="169" width="135" height="148">
<path d="M675.141 169.546H809.645V316.029H675.141V169.546Z" fill="white"/>
</mask>
<g mask="url(#mask1_3899_27530)">
<g opacity="0.199997">
<path d="M675.165 316.025C675.165 316.025 673.018 253.626 710.153 213.177C747.288 172.729 809.644 169.545 809.644 169.545" fill="#231F20"/>
</g>
</g>
<path d="M676.124 316.986C713.819 275.927 751.515 234.87 789.209 193.811C790.39 192.524 788.474 190.6 787.291 191.892C749.597 232.951 711.9 274.008 674.206 315.067C673.025 316.354 674.941 318.278 676.124 316.986Z" fill="#343C76"/>
<path d="M715.871 273.163C715.265 258.991 714.66 244.821 714.055 230.649C713.979 228.909 711.265 228.901 711.341 230.649C711.946 244.821 712.551 258.991 713.157 273.163C713.23 274.905 715.944 274.913 715.871 273.163Z" fill="#343C76"/>
<path d="M746.531 239.769C745.926 225.6 745.321 211.427 744.715 197.258C744.642 195.518 741.928 195.507 742.001 197.258C742.607 211.427 743.212 225.6 743.817 239.769C743.893 241.509 746.607 241.52 746.531 239.769Z" fill="#343C76"/>
<path d="M787.685 236.598C773.516 237.203 759.344 237.808 745.171 238.413C743.432 238.487 743.424 241.203 745.171 241.127C759.344 240.522 773.516 239.917 787.685 239.312C789.425 239.238 789.436 236.522 787.685 236.598Z" fill="#343C76"/>
<path d="M757.026 269.99C742.857 270.596 728.685 271.201 714.515 271.806C712.775 271.879 712.765 274.593 714.515 274.52C728.685 273.915 742.857 273.31 757.026 272.704C758.766 272.631 758.777 269.917 757.026 269.99Z" fill="#343C76"/>
<path d="M707.1 156.558C707.1 156.558 729.134 192.255 720.935 228.225C712.736 264.199 677.412 286.822 677.412 286.822C677.412 286.822 655.377 251.123 663.573 215.152C671.772 179.181 707.1 156.558 707.1 156.558Z" fill="#3065B0"/>
<mask id="mask2_3899_27530" style="mask-type:luminance" maskUnits="userSpaceOnUse" x="661" y="156" width="47" height="131">
<path d="M661.743 156.557H707.096V286.818H661.743V156.557Z" fill="white"/>
</mask>
<g mask="url(#mask2_3899_27530)">
<g opacity="0.199997">
<path d="M677.408 286.82C677.408 286.82 655.373 251.121 663.572 215.15C671.771 179.179 707.096 156.556 707.096 156.556" fill="#231F20"/>
</g>
</g>
<path d="M678.714 287.183C687.035 250.669 695.359 214.156 703.68 177.642C704.068 175.943 701.451 175.216 701.063 176.92C692.742 213.434 684.419 249.947 676.098 286.461C675.71 288.16 678.326 288.887 678.714 287.183Z" fill="#343C76"/>
<path d="M687.265 248.02L672.048 223.817C671.12 222.344 668.769 223.703 669.703 225.188C674.775 233.256 679.85 241.322 684.92 249.391C685.848 250.865 688.198 249.505 687.265 248.02Z" fill="#343C76"/>
<path d="M694.036 218.319L678.819 194.116C677.891 192.642 675.541 194.002 676.474 195.487C681.547 203.555 686.619 211.621 691.692 219.69C692.62 221.163 694.97 219.804 694.036 218.319Z" fill="#343C76"/>
<path d="M716.38 202.615C708.314 207.688 700.246 212.76 692.18 217.833C690.703 218.761 692.063 221.111 693.548 220.177C701.616 215.105 709.682 210.033 717.751 204.96C719.224 204.032 717.865 201.682 716.38 202.615Z" fill="#343C76"/>
<path d="M709.615 232.316L685.412 247.533C683.938 248.461 685.298 250.808 686.78 249.878L710.983 234.658C712.459 233.729 711.099 231.382 709.615 232.316Z" fill="#343C76"/>
<path d="M583.213 353.153C583.213 353.153 623.966 404.499 617.857 461.826C611.745 519.15 561.083 560.752 561.083 560.752C561.083 560.752 520.331 509.407 526.443 452.08C532.552 394.753 583.213 353.153 583.213 353.153Z" fill="#3065B0"/>
<mask id="mask3_3899_27530" style="mask-type:luminance" maskUnits="userSpaceOnUse" x="525" y="353" width="59" height="208">
<path d="M525.807 353.153H583.202V560.752H525.807V353.153Z" fill="white"/>
</mask>
<g mask="url(#mask3_3899_27530)">
<g opacity="0.199997">
<path d="M561.075 560.752C561.075 560.752 520.319 509.407 526.431 452.08C532.543 394.753 583.204 353.153 583.204 353.153" fill="#231F20"/>
</g>
</g>
<path d="M562.442 560.753C568.643 502.563 574.847 444.371 581.048 386.181C581.233 384.447 578.519 384.46 578.334 386.181C572.133 444.371 565.929 502.563 559.728 560.753C559.543 562.487 562.257 562.474 562.442 560.753Z" fill="#343C76"/>
<path d="M568.517 499.046L540.455 464.283C539.356 462.924 537.448 464.856 538.536 466.202L566.598 500.965C567.695 502.322 569.605 500.392 568.517 499.046Z" fill="#343C76"/>
<path d="M573.564 451.717L545.502 416.954C544.402 415.597 542.494 417.527 543.583 418.873L571.645 453.636C572.742 454.996 574.652 453.063 573.564 451.717Z" fill="#343C76"/>
<path d="M606.405 423.654C594.817 433.009 583.231 442.364 571.645 451.719C570.285 452.815 572.215 454.723 573.564 453.638C585.15 444.283 596.738 434.928 608.324 425.573C609.684 424.476 607.754 422.568 606.405 423.654Z" fill="#343C76"/>
<path d="M601.357 470.982C589.768 480.334 578.182 489.692 566.596 499.047C565.236 500.144 567.166 502.052 568.515 500.966C580.101 491.611 591.687 482.253 603.275 472.901C604.635 471.805 602.705 469.894 601.357 470.982Z" fill="#343C76"/>
<path d="M606.149 87.5787C606.149 100.79 595.441 111.498 582.23 111.498C569.023 111.498 558.315 100.79 558.315 87.5787C558.315 74.3669 569.023 63.6593 582.23 63.6593C595.441 63.6593 606.149 74.3669 606.149 87.5787Z" fill="white"/>
<path d="M660.732 76.5441C660.732 95.8525 645.081 111.504 625.772 111.504C606.469 111.504 590.818 95.8525 590.818 76.5441C590.818 57.2357 606.469 41.5842 625.772 41.5842C645.081 41.5842 660.732 57.2357 660.732 76.5441Z" fill="white"/>
<path d="M819.578 76.5441C819.578 95.8525 803.927 111.504 784.618 111.504C765.315 111.504 749.663 95.8525 749.663 76.5441C749.663 57.2357 765.315 41.5842 784.618 41.5842C803.927 41.5842 819.578 57.2357 819.578 76.5441Z" fill="white"/>
<path d="M790.752 41.5851C790.752 60.8935 775.101 76.5449 755.792 76.5449C736.489 76.5449 720.838 60.8935 720.838 41.5851C720.838 22.2767 736.489 6.62525 755.792 6.62525C775.101 6.62525 790.752 22.2767 790.752 41.5851Z" fill="white"/>
<path d="M746.648 56.246C746.648 86.7638 721.909 111.498 691.396 111.498C660.883 111.498 636.144 86.7638 636.144 56.246C636.144 25.7331 660.883 0.998905 691.396 0.998905C721.909 0.998905 746.648 25.7331 746.648 56.246Z" fill="white"/>
<path d="M582.233 111.498H784.618V74.0886L691.401 45.2602L576.713 93.7101L582.233 111.498Z" fill="white"/>
<path d="M568.339 161.27C568.339 166.861 572.868 171.391 578.459 171.391C584.047 171.391 588.579 166.861 588.579 161.27C588.579 155.682 584.047 151.15 578.459 151.15C572.868 151.15 568.339 155.682 568.339 161.27Z" fill="white"/>
<path d="M545.244 156.6C545.244 164.769 551.866 171.391 560.035 171.391C568.204 171.391 574.823 164.769 574.823 156.6C574.823 148.431 568.204 141.809 560.035 141.809C551.866 141.809 545.244 148.431 545.244 156.6Z" fill="white"/>
<path d="M478.041 156.6C478.041 164.769 484.663 171.391 492.832 171.391C500.998 171.391 507.62 164.769 507.62 156.6C507.62 148.431 500.998 141.809 492.832 141.809C484.663 141.809 478.041 148.431 478.041 156.6Z" fill="white"/>
<path d="M490.234 141.812C490.234 149.981 496.856 156.604 505.025 156.604C513.191 156.604 519.814 149.981 519.814 141.812C519.814 133.643 513.191 127.021 505.025 127.021C496.856 127.021 490.234 133.643 490.234 141.812Z" fill="white"/>
<path d="M508.897 148.015C508.897 160.926 519.362 171.391 532.273 171.391C545.183 171.391 555.651 160.926 555.651 148.015C555.651 135.105 545.183 124.64 532.273 124.64C519.362 124.64 508.897 135.105 508.897 148.015Z" fill="white"/>
<path d="M578.456 171.391H492.828V155.563L532.268 143.366L580.79 163.868L578.456 171.391Z" fill="white"/>
<path d="M876.188 547.992C876.188 558.987 867.274 567.9 856.279 567.9H164.749C153.754 567.9 144.841 558.987 144.841 547.992V547.992C144.841 536.996 153.754 528.083 164.75 528.083H856.279C867.274 528.083 876.188 536.996 876.188 547.992V547.992Z" fill="#7969E6"/>
<path d="M762.817 479.734H492.388C478.897 479.734 467.962 468.8 467.962 455.309V287.969C467.962 274.478 478.897 263.543 492.388 263.543H762.817C776.308 263.543 787.243 274.478 787.243 287.969V455.309C787.243 468.8 776.308 479.734 762.817 479.734Z" fill="white"/>
<path d="M787.243 450.869H467.962V278.251C467.962 264.76 478.897 253.825 492.388 253.825H762.817C776.308 253.825 787.243 264.76 787.243 278.251V450.869Z" fill="#462687"/>
<path d="M772.512 434.555H482.683V268.55H772.512V434.555Z" fill="white"/>
<path d="M663.53 518.617H591.661V479.737H663.53V518.617Z" fill="#BCB4F3"/>
<path d="M691.216 529.219H563.975V518.615H691.216V529.219Z" fill="white"/>
<mask id="mask4_3899_27530" style="mask-type:luminance" maskUnits="userSpaceOnUse" x="591" y="479" width="73" height="28">
<path d="M591.672 479.738H663.538V506.834H591.672V479.738Z" fill="white"/>
</mask>
<g mask="url(#mask4_3899_27530)">
<g opacity="0.100006">
<path d="M663.541 496.233L591.673 506.836V479.737H663.541V496.233Z" fill="#000100"/>
</g>
</g>
<path d="M772.512 275.322H482.683V268.548H772.512V275.322Z" fill="#462687"/>
<path d="M680.942 319.635H495.891V288.468H680.942V319.635Z" fill="#462687"/>
<path d="M680.942 419.646H495.891V331.443H680.942V419.646Z" fill="#BCB4F3"/>
<path d="M757.857 419.646H693.577V288.47H757.857V419.646Z" fill="#BCB4F3"/>
<path d="M382.055 451.167C382.919 451.186 383.687 450.869 384.52 450.803C385.12 450.76 385.776 450.945 386.39 450.988C387.861 451.088 389.345 451.012 390.8 450.771C393.666 450.296 396.429 449.175 398.787 447.476C399.487 446.971 400.166 446.404 400.6 445.663C401.753 443.693 400.939 441.017 402.093 439.049C402.597 438.184 403.433 437.557 404.02 436.745C404.864 435.575 405.146 434.064 405.026 432.625C404.649 428.058 401.753 424.584 397.663 422.893C394.523 421.596 390.537 422.863 388.726 425.737C387.985 426.907 387.565 428.305 386.558 429.255C385.323 430.419 383.562 430.449 382.224 431.42C380.837 432.425 379.8 433.602 379.526 435.361C379.38 436.306 379.469 437.318 379.043 438.175C378.677 438.906 377.987 439.41 377.423 440.005C375.667 441.842 375.127 444.746 376.101 447.094C377.078 449.444 379.512 451.11 382.055 451.167Z" fill="black"/>
<path d="M398.581 527.441C398.795 527.457 399.018 527.474 399.211 527.563C399.409 527.653 399.574 527.843 399.566 528.063C399.563 528.179 399.506 528.296 399.43 528.394C399.042 528.901 398.301 528.931 397.661 528.915L390.564 528.733C390.458 528.73 390.349 528.728 390.252 528.681C390.146 528.633 390.062 528.54 389.994 528.445C389.508 527.748 389.576 526.812 389.78 525.986C389.983 525.161 390.301 524.339 390.246 523.495C390.225 523.197 390.178 522.841 390.404 522.643C390.507 522.553 390.645 522.521 390.778 522.491C391.53 522.328 392.304 522.258 393.072 522.279C392.985 522.279 393.023 524.703 393.099 524.936C393.791 527.037 396.73 527.3 398.581 527.441Z" fill="#462687"/>
<path d="M398.976 443.089C398.995 443.211 399.011 443.344 398.954 443.456C398.873 443.61 398.683 443.662 398.509 443.692C397.122 443.931 395.651 443.627 394.471 442.861C394.357 442.788 394.237 442.698 394.191 442.574C394.159 442.484 394.164 442.389 394.169 442.294C394.273 440.565 394.376 438.837 394.479 437.108C394.487 436.98 394.498 436.842 394.579 436.741C394.666 436.636 394.813 436.598 394.948 436.57C395.521 436.448 396.118 436.353 396.685 436.489C397.972 436.804 397.925 437.979 398.115 439.043C398.357 440.4 398.764 441.724 398.976 443.089Z" fill="#FAAA94"/>
<path d="M408.641 433.717C409.2 434.89 409.757 436.06 410.299 437.235C410.416 437.487 410.541 437.748 410.758 437.921C411.211 438.28 412.408 437.704 412.924 437.577C413.008 437.555 413.1 437.53 413.165 437.471C413.407 437.251 413.013 436.203 412.948 435.921C412.804 435.319 412.642 434.722 412.484 434.122C412.172 432.96 411.868 431.788 411.751 430.588C411.697 430.029 411.654 429.473 411.04 429.307C410.109 429.057 408.546 429.421 407.83 430.094C406.977 430.895 407.868 432.103 408.253 432.906C408.383 433.177 408.514 433.446 408.641 433.717Z" fill="#FFCA5D"/>
<path d="M412.697 448.832C412.83 447.844 412.947 446.856 412.976 445.839C413.014 444.468 413.014 443.089 413.161 441.719C413.202 441.342 413.253 440.948 413.473 440.636C413.747 440.256 414.274 440.077 414.724 440.213C415.161 440.348 415.481 440.742 415.644 441.171C415.81 441.599 415.837 442.066 415.864 442.522C416.013 444.997 416.16 447.47 416.309 449.945C416.388 451.305 416.469 452.683 416.195 454.019C415.742 456.225 412.64 454.778 411.378 454.214C407.402 452.434 403.507 450.409 400.039 447.757C399.559 447.388 398.991 446.995 398.755 446.411C398.457 445.668 398.552 444.74 398.867 444.02C399.005 443.7 399.198 443.399 399.483 443.201C399.96 442.867 400.555 443.027 401.059 443.217C403.912 444.281 406.517 445.73 409.095 447.334C410.246 448.053 411.391 448.905 412.602 449.508C412.634 449.283 412.667 449.057 412.697 448.832Z" fill="#FAAA94"/>
<path d="M416.885 432.409C419.122 432.186 421.472 432.561 423.342 433.801C423.822 434.121 424.457 434.501 424.916 434.151C425.073 434.032 425.168 433.847 425.252 433.668C426.902 430.091 426.286 425.575 423.735 422.574C423.116 421.844 422.145 421.157 421.276 421.55C420.943 421.705 420.696 421.993 420.46 422.275C419.369 423.572 418.269 424.878 416.997 425.993C415.678 427.149 414.179 428.088 412.573 428.786C411.346 429.315 409.15 429.519 408.543 430.927C408.366 431.334 408.431 431.804 408.572 432.227C408.678 432.545 408.828 432.854 409.05 433.106C410.019 434.2 411.674 433.351 412.828 433.177C414.188 432.973 415.507 432.545 416.885 432.409Z" fill="#FFCA5D"/>
<path d="M415.903 435.105C415.924 435.119 415.946 435.135 415.965 435.151C416.171 435.311 416.282 435.561 416.377 435.805C416.611 436.375 416.82 436.956 417.01 437.539C417.089 437.792 417.17 438.052 417.156 438.318C417.116 439.29 415.596 440.196 415.77 441.621C415.778 441.686 414.269 441.171 413.626 441.255C413.498 441.271 413.254 441.206 413.254 441.206C413.254 441.206 413.126 441.002 413.102 440.883C412.904 439.863 412.705 438.88 412.391 437.895C412.266 437.51 412.206 437.065 412.399 436.706C412.632 436.272 413.121 436.153 413.506 435.898C413.913 435.629 414.285 435.333 414.736 435.129C415.107 434.961 415.566 434.893 415.903 435.105Z" fill="#FAAA94"/>
<path d="M408.72 527.441C408.934 527.457 409.157 527.474 409.349 527.563C409.545 527.653 409.71 527.843 409.705 528.063C409.702 528.179 409.642 528.296 409.569 528.394C409.181 528.901 408.44 528.931 407.8 528.915C405.433 528.855 403.067 528.793 400.703 528.733C400.597 528.73 400.488 528.728 400.391 528.681C400.282 528.633 400.201 528.54 400.133 528.445C399.647 527.748 399.715 526.812 399.918 525.986C400.122 525.161 400.439 524.339 400.385 523.495C400.363 523.197 400.317 522.841 400.543 522.643C400.646 522.553 400.784 522.521 400.917 522.491C401.669 522.328 402.44 522.258 403.208 522.279C403.124 522.279 403.159 524.703 403.237 524.936C403.927 527.037 406.869 527.3 408.72 527.441Z" fill="#462687"/>
<path d="M396.909 470.146C395.473 470.266 394.056 470.616 392.732 471.18C389.236 472.673 391.766 480.294 392.517 483.019C393.47 486.476 394.425 489.934 395.378 493.389C396.936 499.036 397.731 504.836 398.149 510.674C398.225 511.77 398.914 523.744 399.015 523.747C400.605 523.769 402.198 523.788 403.791 523.807C404.212 523.812 404.744 517.445 404.79 516.818C404.966 514.454 404.999 512.085 405.121 509.71C405.821 498.876 405.118 487.738 404.681 476.88C404.608 475.083 404.329 473.216 403.186 471.75C402.722 471.15 401.441 471.015 400.765 470.754C399.737 470.355 398.906 470.087 397.774 470.103C397.484 470.108 397.196 470.122 396.909 470.146Z" fill="#FFD785"/>
<path d="M386.803 470.488C386.602 471.53 386.528 472.592 386.458 473.65C385.801 483.423 386.797 493.207 387.465 502.95C387.94 509.884 388.483 516.807 388.879 523.747C390.472 523.769 392.062 523.788 393.655 523.807C394.076 523.812 394.605 517.445 394.654 516.818C394.83 514.454 394.863 512.085 394.985 509.71C394.985 505.938 395.381 502.119 395.569 498.35C395.794 493.877 396.054 489.367 396.589 484.927C396.909 482.272 397.303 479.621 397.604 476.961C397.884 474.521 398.551 471.634 397.452 469.327C396.866 468.1 395.794 467.115 394.518 466.64C393.349 466.203 392.065 466.192 390.817 466.217C390.146 466.23 389.462 466.252 388.838 466.491C387.275 467.08 387.079 469.058 386.803 470.488Z" fill="#FFD785"/>
<path d="M399.262 437.389C405.094 432.197 400.385 417.965 392.013 423.87C386.129 428.02 392.01 443.289 399.123 437.508C399.17 437.47 399.216 437.432 399.262 437.389Z" fill="#FAAA94"/>
<path d="M387.134 474.315C384.399 473.216 386.858 468.968 387.457 467.248C388.809 463.361 388.494 459.342 387.943 455.325C387.813 454.37 387.512 453.298 387.658 452.332C387.767 451.613 388.044 450.937 388.147 450.204C388.426 448.196 388.82 446.206 389.715 444.372C391.528 440.654 395.838 439.514 399.556 440.903C400.908 441.411 401.722 442.152 402.221 443.509L402.9 445.362C403.272 446.372 403.643 447.382 404.013 448.394C404.653 450.139 405.291 452.098 404.542 453.8C404.156 454.679 403.429 455.396 403.179 456.321C403.079 456.693 403.063 457.079 403.049 457.464C402.921 461.481 403.565 465.199 404.352 469.082C404.572 470.157 404.534 471.286 404.561 472.396C404.572 472.779 404.574 473.183 404.376 473.509C404.135 473.902 403.66 474.076 403.215 474.206C399.616 475.257 395.795 475.156 392.047 475.045C390.383 474.993 388.679 474.936 387.134 474.315Z" fill="#462687"/>
<path d="M382.611 455.312C381.994 457.301 381.598 459.025 381.495 459.725C381.435 460.14 381.384 460.577 381.53 460.976C381.628 461.245 381.807 461.47 381.986 461.693C383.764 463.929 385.04 465.441 387.669 466.751C390.402 468.114 393.198 469.351 396.042 470.461C396.256 470.545 396.487 470.632 396.715 470.594C397.22 470.518 397.459 469.867 397.301 469.381C397.079 468.697 396.4 468.358 395.928 467.88C395.32 467.267 394.715 466.656 394.099 466.051C392.842 464.822 391.556 463.619 390.245 462.444C389.189 461.494 388.017 460.634 387.004 459.644C386.231 458.889 386.988 457.543 387.374 456.718C388.323 454.68 389.127 452.595 390.495 450.837C391.786 449.17 392.519 446.603 392.185 444.521C392.093 443.943 391.892 443.338 391.42 442.985C390.85 442.562 390.022 442.635 389.404 442.991C388.788 443.346 388.337 443.927 387.924 444.508C385.585 447.794 383.802 451.458 382.611 455.312Z" fill="#FAAA94"/>
<path d="M388.463 435.36C388.336 435.955 387.674 438.389 386.813 437.893C386.094 437.475 386.33 435.626 386.268 434.959C386.216 434.405 386.083 433.868 385.945 433.33C385.161 430.237 383.692 427.205 385.242 424.062C385.448 423.644 385.717 423.235 386.043 422.884C387.736 421.063 391.115 420.293 393.509 420.474C394.559 420.55 395.672 420.838 396.347 421.647C396.774 422.154 396.977 422.841 396.904 423.498C396.768 424.689 395.778 425.623 394.705 426.163C393.631 426.708 392.437 426.964 391.346 427.471C389.82 428.179 388.887 429.303 388.933 431.007C388.976 432.511 388.784 433.879 388.463 435.36Z" fill="black"/>
<path d="M392.567 432.63C392.776 433.705 392.458 434.674 391.856 434.793C391.253 434.91 390.594 434.134 390.382 433.056C390.173 431.981 390.491 431.013 391.096 430.893C391.698 430.776 392.355 431.555 392.567 432.63Z" fill="#FAAA94"/>
<path d="M397.793 469.115C397.871 469.145 397.953 469.172 398.034 469.188C398.691 469.337 399.397 469.101 400.083 469.221C400.846 469.354 402.219 469.771 402.482 470.597C402.523 470.732 402.548 470.876 402.504 471.009C402.458 471.142 402.33 471.256 402.192 471.242C402.097 471.232 402.018 471.172 401.942 471.118C401.622 471.118 400.45 470.252 400.254 470.906C400.059 471.546 401.758 473.229 402.29 473.395C402.507 473.462 402.737 473.465 402.96 473.514C403.183 473.563 403.411 473.674 403.508 473.88C403.611 474.089 403.546 474.353 403.402 474.537C403.264 474.724 403.058 474.852 402.857 474.969C402.284 475.305 401.679 475.604 401.028 475.734C398.941 476.168 397.88 474.524 396.997 472.922C396.373 471.796 395.48 470.881 394.658 469.899C394.606 469.837 394.552 469.766 394.544 469.685C394.539 469.622 394.56 469.56 394.585 469.5C394.821 468.933 395.299 468.504 395.76 468.1C395.801 468.064 395.841 468.032 395.89 468.016C395.991 467.983 396.094 468.04 396.183 468.094C396.694 468.401 397.217 468.898 397.793 469.115Z" fill="#FAAA94"/>
<path d="M405.131 424.652L385.957 429.141L385.62 427.705L404.795 423.213L405.131 424.652Z" fill="#FFCA5D"/>
<path d="M386.497 427.496C385.501 423.246 388.139 418.988 392.391 417.992C396.644 416.999 400.9 419.636 401.896 423.889" fill="#FFCA5D"/>
<path d="M425.933 427.118C426.867 431.107 426.536 434.592 425.192 434.907C423.846 435.222 422.001 432.247 421.067 428.258C420.134 424.271 420.465 420.783 421.808 420.471C423.154 420.156 425 423.131 425.933 427.118Z" fill="#FFCA5D"/>
<path d="M738.882 402.687C738.662 402.703 738.437 402.72 738.236 402.812C738.038 402.904 737.867 403.097 737.875 403.32C737.878 403.442 737.938 403.561 738.014 403.659C738.41 404.18 739.167 404.212 739.824 404.193C742.242 404.131 744.66 404.069 747.081 404.006C747.19 404.003 747.301 404.001 747.399 403.957C747.51 403.906 747.591 403.811 747.662 403.713C748.158 403.002 748.091 402.044 747.882 401.197C747.675 400.356 747.35 399.517 747.407 398.652C747.426 398.342 747.475 397.984 747.244 397.78C747.138 397.688 746.997 397.655 746.858 397.626C746.09 397.457 745.303 397.387 744.516 397.409C744.603 397.409 744.568 399.886 744.486 400.128C743.781 402.272 740.776 402.541 738.882 402.687Z" fill="#462687"/>
<path d="M750.958 344.1C752.426 344.222 753.873 344.58 755.227 345.158C758.804 346.684 756.215 354.475 755.447 357.265C754.47 360.796 753.498 364.332 752.521 367.869C750.931 373.641 750.116 379.571 749.69 385.542C749.609 386.66 748.906 398.906 748.806 398.906C747.174 398.927 745.549 398.949 743.92 398.971C743.489 398.976 742.946 392.463 742.897 391.825C742.715 389.404 742.683 386.983 742.558 384.557C741.844 373.476 742.561 362.091 743.011 350.988C743.085 349.148 743.372 347.237 744.537 345.739C745.014 345.129 746.322 344.987 747.014 344.721C748.065 344.314 748.914 344.038 750.073 344.057C750.369 344.062 750.665 344.076 750.958 344.1Z" fill="#3065B0"/>
<path d="M749.253 402.687C749.034 402.703 748.808 402.72 748.608 402.812C748.407 402.904 748.238 403.097 748.247 403.32C748.249 403.442 748.309 403.561 748.382 403.659C748.781 404.18 749.538 404.212 750.195 404.193C752.613 404.131 755.032 404.069 757.45 404.006C757.558 404.003 757.672 404.001 757.77 403.957C757.881 403.906 757.963 403.811 758.033 403.713C758.53 403.002 758.462 402.044 758.253 401.197C758.047 400.356 757.721 399.517 757.778 398.652C757.797 398.342 757.846 397.984 757.615 397.78C757.509 397.688 757.368 397.655 757.23 397.626C756.462 397.457 755.675 397.387 754.888 397.409C754.975 397.409 754.939 399.886 754.858 400.128C754.152 402.272 751.145 402.541 749.253 402.687Z" fill="#462687"/>
<path d="M748.774 316.365C748.779 316.493 748.79 316.631 748.871 316.729C748.983 316.87 749.186 316.881 749.363 316.873C750.801 316.827 752.212 316.222 753.238 315.212C753.339 315.114 753.439 315.003 753.461 314.865C753.474 314.77 753.45 314.677 753.425 314.585C752.964 312.873 752.505 311.163 752.047 309.45C752.012 309.323 751.974 309.19 751.873 309.106C751.765 309.016 751.61 309.011 751.469 309.008C750.869 309.005 750.25 309.032 749.71 309.287C748.486 309.863 748.774 311.033 748.804 312.134C748.842 313.546 748.703 314.954 748.774 316.365Z" fill="#D99481"/>
<path d="M761.294 344.45C761.5 345.517 761.574 346.602 761.647 347.682C762.317 357.675 761.299 367.682 760.616 377.642C760.13 384.731 759.576 391.814 759.172 398.906C757.543 398.927 755.918 398.949 754.287 398.971C753.855 398.976 753.315 392.463 753.266 391.825C753.084 389.404 753.052 386.983 752.927 384.557C752.927 380.695 752.525 376.795 752.33 372.936C752.102 368.368 751.836 363.754 751.288 359.214C750.959 356.497 750.558 353.789 750.248 351.067C749.963 348.575 749.282 345.622 750.406 343.264C751.003 342.01 752.102 341.001 753.405 340.515C754.601 340.07 755.912 340.059 757.191 340.083C757.874 340.097 758.575 340.121 759.215 340.363C760.811 340.965 761.012 342.987 761.294 344.45Z" fill="#3065B0"/>
<path d="M745.932 309.936C739.891 304.714 744.491 290.092 753.143 296.005C759.219 300.16 753.436 315.861 746.076 310.055C746.027 310.017 745.981 309.979 745.932 309.936Z" fill="#FAAA94"/>
<path d="M744.342 318.574C743.561 321.134 743.704 324.173 743.639 326.646C743.474 333.23 743.305 339.816 743.14 346.403C743.129 346.794 743.126 347.209 743.33 347.543C743.577 347.945 744.063 348.124 744.516 348.254C748.196 349.329 752.104 349.223 755.936 349.109C757.638 349.057 759.38 349 760.96 348.368C761.256 348.249 761.557 348.097 761.731 347.828C761.923 347.535 761.918 347.158 761.91 346.808C761.744 341.369 761.302 335.938 760.588 330.546C760.026 326.301 760.241 321.687 758.319 317.747C756.465 313.947 752.061 312.78 748.258 314.205C747.127 314.625 746.076 315.334 745.393 316.327C744.928 317.006 744.589 317.766 744.342 318.574Z" fill="#FFD785"/>
<path d="M764.727 333.073C764.996 335.185 765.091 336.989 765.069 337.711C765.059 338.143 765.031 338.593 764.814 338.968C764.67 339.22 764.448 339.416 764.228 339.608C762.043 341.546 760.491 342.846 757.611 343.701C754.618 344.586 751.584 345.343 748.522 345.956C748.292 346.002 748.047 346.046 747.822 345.972C747.328 345.801 747.201 345.109 747.445 344.645C747.79 343.994 748.533 343.774 749.095 343.378C749.814 342.868 750.533 342.357 751.261 341.858C752.743 340.84 754.252 339.858 755.777 338.905C757.009 338.137 758.342 337.475 759.538 336.658C760.45 336.037 759.924 334.544 759.682 333.643C759.156 331.684 758.635 329.724 758.103 327.765C757.886 326.972 757.601 326.367 757.663 325.512C757.72 324.714 758.016 323.946 758.673 323.452C762.336 320.708 764.063 327.835 764.727 333.073Z" fill="#FAAA94"/>
<path d="M753.645 317.218C753.102 319.12 753.675 321.682 754.261 323.134C754.492 323.701 755.599 328.505 755.566 328.508C758.313 328.117 761.016 327.447 763.624 326.508C763.771 326.453 763.931 326.394 764.012 326.258C764.083 326.147 764.083 326.003 764.077 325.87C764.004 323.935 763.122 322.103 762.552 320.298C761.7 317.603 758.302 313.424 755.105 315.237C754.34 315.668 753.884 316.376 753.645 317.218Z" fill="#FFD785"/>
<path d="M756.355 294.954C755.948 294.531 755.459 294.194 754.898 294.023C753.793 293.69 752.599 293.804 751.486 293.483C750.295 293.141 749.092 292.36 747.912 292.748C747.163 292.992 746.65 293.269 746.123 293.874C745.89 294.146 745.651 294.42 745.415 294.691C745.157 294.992 744.891 295.299 744.747 295.671C744.636 295.956 744.604 296.268 744.585 296.577C744.552 297.047 744.549 297.543 744.747 297.972C745.198 298.955 745.846 298.548 746.617 298.469C747.165 298.409 747.676 298.721 748.199 298.892C749.575 299.345 751.266 298.909 752.39 299.826C753.361 300.621 753.538 302.127 753.522 303.302C753.505 304.434 753.473 305.563 753.473 306.695C753.475 307.319 753.342 308.155 754.067 307.726C754.862 307.257 755.6 306.033 756.103 305.281C756.691 304.402 757.177 303.454 757.508 302.453C758.184 300.398 758.173 298.067 757.191 296.143C756.974 295.72 756.694 295.31 756.355 294.954Z" fill="black"/>
<path d="M752.707 304.974C752.509 306.076 752.848 307.064 753.467 307.175C754.086 307.287 754.748 306.481 754.946 305.376C755.144 304.271 754.802 303.289 754.186 303.178C753.567 303.066 752.905 303.872 752.707 304.974Z" fill="#FAAA94"/>
<path d="M725.5 317.07C724.764 316.367 722.227 313.268 721.076 314.882C720.753 315.333 720.976 315.957 721.212 316.456C722.495 319.149 724.14 321.648 725.961 324.004C727.684 326.229 729.424 328.536 731.365 330.574C732.673 331.945 733.943 332.784 735.886 332.07C738.524 331.104 741.116 329.766 743.116 327.766C743.906 326.978 744.563 326.067 745.208 325.155C745.559 324.658 745.911 324.145 746.088 323.562C746.261 322.978 746.232 322.3 745.863 321.817C745.423 321.238 744.601 321.07 743.889 321.211C743.178 321.355 742.551 321.757 741.941 322.148C740.055 323.355 738.171 324.569 736.288 325.779C734.792 326.74 734.114 325.605 733.118 324.569C730.656 322.017 728.089 319.54 725.5 317.07Z" fill="#FAAA94"/>
<path d="M738.596 323.842L743.587 328.822C743.587 328.822 746.679 326.1 747.995 324.529C748.918 323.427 749.908 322.119 750.245 320.694C750.541 319.429 750.133 318.208 749.213 317.312C748.263 316.392 746.852 315.966 745.558 316.287C743.495 316.802 742.336 319.003 741.169 320.585C740.99 320.832 738.558 323.804 738.596 323.842Z" fill="#FFD785"/>
<path d="M717.865 306.548C717.257 305.601 716.451 304.86 715.409 306.249C715.121 306.629 715.081 307.139 715.091 307.617C715.127 309.471 715.794 311.308 716.956 312.757C716.397 312.613 715.442 311.59 714.926 312.217C714.722 312.464 714.752 312.831 714.869 313.129C715.205 313.984 716.077 314.483 716.885 314.915C718.291 315.661 720.253 316.212 721.396 317.341C721.619 317.561 721.749 317.892 722.123 317.887C722.305 317.884 722.468 317.773 722.631 317.686C722.962 317.512 723.342 317.436 723.676 317.268C724.012 317.1 724.322 316.79 724.322 316.416C724.319 316.104 724.11 315.84 723.915 315.604C721.898 313.186 720.248 310.518 718.606 307.831C718.402 307.5 718.156 306.998 717.865 306.548Z" fill="#FAAA94"/>
<path d="M739.478 337.062C740.813 336.481 742.148 335.901 743.486 335.32C744.167 335.024 744.832 334.701 745.519 334.421C746.13 334.177 746.797 333.914 747.443 333.789C748.173 335.089 748.681 336.457 749.316 337.798C749.34 337.847 749.362 337.906 749.329 337.947C749.316 337.969 749.289 337.979 749.264 337.99C746.811 339.003 744.439 340.181 741.956 341.144C741.711 341.239 741.432 341.372 741.375 341.63C741.342 341.787 741.405 341.95 741.47 342.097C742.577 344.713 743.684 347.329 744.792 349.945" stroke="black" stroke-width="0.666667" stroke-miterlimit="10"/>
<path d="M744.86 332.375C744.974 332.345 745.091 332.328 745.21 332.328C745.861 332.334 745.921 332.817 746.103 333.303C746.369 334.027 746.724 334.733 747.034 335.444C747.142 335.699 747.254 335.981 747.159 336.242C747.058 336.508 746.773 336.652 746.513 336.768C742.52 338.551 738.517 340.343 734.343 341.651C733.99 341.759 733.586 341.86 733.274 341.664C733.1 341.556 732.986 341.366 732.886 341.187C732.503 340.489 732.188 339.754 731.944 338.994C731.635 338.03 732.275 337.629 733.06 337.311C734.319 336.809 735.562 336.261 736.81 335.732C739.31 334.681 741.809 333.626 744.312 332.573C744.491 332.497 744.673 332.421 744.86 332.375Z" fill="#462687"/>
<path d="M743.815 344.562C744.48 346.402 745.278 348.234 746.046 350.036C746.089 350.142 746.135 350.256 746.105 350.367C746.076 350.465 745.994 350.535 745.91 350.601C745.546 350.877 745.123 351.084 744.681 351.203C744.559 351.236 744.428 351.26 744.314 351.208C744.181 351.152 744.111 351.008 744.054 350.875C743.218 349.005 742.216 347.184 741.557 345.26C742.279 344.942 743.022 344.679 743.782 344.475L743.815 344.562Z" fill="#462687"/>
<path d="M746.997 344.291C746.91 344.308 746.826 344.319 746.742 344.321C746.506 344.335 746.278 344.264 746.047 344.267C745.719 344.272 745.442 344.397 745.127 344.449C744.715 344.514 744.321 344.628 743.95 344.821C743.933 344.829 743.917 344.84 743.903 344.856C743.879 344.888 743.893 344.937 743.909 344.975C744.031 345.271 744.408 345.7 744.034 345.969C743.898 346.064 743.73 346.093 743.567 346.131C743.049 346.248 742.544 346.473 742.177 346.856C741.797 347.258 741.743 347.668 741.713 348.189C741.678 348.734 742.028 349.244 742.37 349.638C742.666 349.974 743.141 350.544 743.621 350.514C743.865 350.498 744.107 350.43 744.34 350.352C744.886 350.173 745.494 349.991 745.923 349.597C746.365 349.196 746.75 348.734 747.125 348.267C747.953 347.241 749.011 346.482 750.015 345.632C750.08 345.581 750.146 345.518 750.167 345.439C750.186 345.374 750.173 345.309 750.162 345.247C750.023 344.631 749.616 344.118 749.223 343.626C749.19 343.586 749.155 343.542 749.106 343.518C749.011 343.469 748.897 343.507 748.799 343.548C748.232 343.768 747.616 344.172 746.997 344.291Z" fill="#FAAA94"/>
<path d="M739.64 298.57L759.289 302.975L759.62 301.501L739.971 297.096L739.64 298.57Z" fill="#FFCA5D"/>
<path d="M758.72 301.301C759.697 296.945 756.956 292.619 752.597 291.639C748.242 290.665 743.916 293.406 742.938 297.762" fill="#FFCA5D"/>
<path d="M820.825 437.512H716.338V403.587H820.825V437.512Z" fill="black"/>
<path d="M716.336 436.157L820.484 466.342" stroke="black" stroke-width="1.33333" stroke-miterlimit="10"/>
<path d="M820.484 436.157L716.336 466.342" stroke="black" stroke-width="1.33333" stroke-miterlimit="10"/>
<path d="M716.336 466.835L820.484 497.02" stroke="black" stroke-width="1.33333" stroke-miterlimit="10"/>
<path d="M820.484 466.835L716.336 497.02" stroke="black" stroke-width="1.33333" stroke-miterlimit="10"/>
<path d="M716.336 496.888L820.484 527.072" stroke="black" stroke-width="1.33333" stroke-miterlimit="10"/>
<path d="M820.484 496.888L716.336 527.072" stroke="black" stroke-width="1.33333" stroke-miterlimit="10"/>
<path d="M716.336 376.108V528.09" stroke="black" stroke-width="1.33333" stroke-miterlimit="10"/>
<path d="M820.483 376.108V528.09" stroke="black" stroke-width="1.33333" stroke-miterlimit="10"/>
<path d="M716.336 376.109H820.484" stroke="black" stroke-width="1.33333" stroke-miterlimit="10"/>
<path d="M344.813 514.862H238.29V528.432H344.813V514.862Z" fill="#E68660"/>
<path d="M297.914 411.053H284.7L256.168 514.861H326.446L297.914 411.053Z" fill="white"/>
<mask id="mask5_3899_27530" style="mask-type:luminance" maskUnits="userSpaceOnUse" x="256" y="410" width="71" height="105">
<path d="M285.135 410.674L256.603 514.482H326.881L298.349 410.674H285.135Z" fill="white"/>
</mask>
<g mask="url(#mask5_3899_27530)">
<path d="M325.546 432.387H255.661V410.675H325.546V432.387Z" fill="#E68660"/>
<path d="M325.546 473.775H255.661V452.064H325.546V473.775Z" fill="#E68660"/>
<path d="M325.546 515.162H255.661V493.45H325.546V515.162Z" fill="#E68660"/>
<mask id="mask6_3899_27530" style="mask-type:luminance" maskUnits="userSpaceOnUse" x="290" y="410" width="66" height="106">
<path d="M290.604 410.673H355.239V515.16H290.604V410.673Z" fill="white"/>
</mask>
<g mask="url(#mask6_3899_27530)">
<g opacity="0.100006">
<path d="M355.239 515.16H290.604V410.673H355.239V515.16Z" fill="#000100"/>
</g>
</g>
</g>
<path d="M5.056 158.688H20.288C22.464 158.688 24.5547 158.901 26.56 159.328C28.608 159.755 30.4 160.48 31.936 161.504C33.472 162.485 34.688 163.829 35.584 165.536C36.5227 167.2 36.992 169.291 36.992 171.808C36.992 174.667 36.5013 176.971 35.52 178.72C34.5387 180.469 33.216 181.835 31.552 182.816C29.888 183.755 27.9467 184.395 25.728 184.736C23.552 185.077 21.2693 185.248 18.88 185.248H13.12V204H5.056V158.688ZM17.984 178.336C19.136 178.336 20.3307 178.293 21.568 178.208C22.8053 178.123 23.936 177.867 24.96 177.44C26.0267 177.013 26.88 176.373 27.52 175.52C28.2027 174.667 28.544 173.472 28.544 171.936C28.544 170.528 28.2453 169.419 27.648 168.608C27.0507 167.755 26.2827 167.115 25.344 166.688C24.4053 166.219 23.36 165.92 22.208 165.792C21.056 165.664 19.9467 165.6 18.88 165.6H13.12V178.336H17.984ZM62.677 199.776H62.485C61.3757 201.525 59.9677 202.805 58.261 203.616C56.5543 204.384 54.677 204.768 52.629 204.768C51.221 204.768 49.8343 204.576 48.469 204.192C47.1463 203.808 45.9517 203.232 44.885 202.464C43.861 201.696 43.029 200.736 42.389 199.584C41.749 198.432 41.429 197.088 41.429 195.552C41.429 193.888 41.7277 192.48 42.325 191.328C42.9223 190.133 43.7117 189.152 44.693 188.384C45.717 187.573 46.8903 186.933 48.213 186.464C49.5357 185.995 50.901 185.653 52.309 185.44C53.7597 185.184 55.2103 185.035 56.661 184.992C58.1117 184.907 59.477 184.864 60.757 184.864H62.677V184.032C62.677 182.112 62.0157 180.683 60.693 179.744C59.3703 178.763 57.685 178.272 55.637 178.272C54.0157 178.272 52.501 178.571 51.093 179.168C49.685 179.723 48.469 180.491 47.445 181.472L43.413 177.44C45.1197 175.691 47.1037 174.432 49.365 173.664C51.669 172.896 54.037 172.512 56.469 172.512C58.645 172.512 60.4797 172.768 61.973 173.28C63.4663 173.749 64.7037 174.368 65.685 175.136C66.6663 175.904 67.413 176.8 67.925 177.824C68.4797 178.805 68.8637 179.808 69.077 180.832C69.333 181.856 69.4823 182.859 69.525 183.84C69.5677 184.779 69.589 185.611 69.589 186.336V204H62.677V199.776ZM62.229 190.24H60.629C59.5623 190.24 58.3677 190.283 57.045 190.368C55.7223 190.453 54.4637 190.667 53.269 191.008C52.117 191.307 51.1357 191.776 50.325 192.416C49.5143 193.013 49.109 193.867 49.109 194.976C49.109 195.701 49.2583 196.32 49.557 196.832C49.8983 197.301 50.325 197.707 50.837 198.048C51.349 198.389 51.925 198.645 52.565 198.816C53.205 198.944 53.845 199.008 54.485 199.008C57.1303 199.008 59.0717 198.389 60.309 197.152C61.589 195.872 62.229 194.144 62.229 191.968V190.24ZM109.468 173.28V201.248C109.468 204.021 109.127 206.517 108.444 208.736C107.761 210.997 106.695 212.896 105.244 214.432C103.836 216.011 102.044 217.227 99.868 218.08C97.692 218.933 95.1107 219.36 92.124 219.36C89.2653 219.36 86.556 218.997 83.996 218.272C81.436 217.547 79.068 216.224 76.892 214.304L81.5 208.032C83.036 209.44 84.636 210.528 86.3 211.296C87.964 212.064 89.884 212.448 92.06 212.448C93.8947 212.448 95.4307 212.192 96.668 211.68C97.948 211.168 98.9507 210.464 99.676 209.568C100.444 208.672 100.977 207.584 101.276 206.304C101.617 205.067 101.788 203.68 101.788 202.144V199.904H101.66C100.551 201.397 99.0787 202.528 97.244 203.296C95.4093 204.021 93.532 204.384 91.612 204.384C89.308 204.384 87.2173 203.979 85.34 203.168C83.4627 202.315 81.8413 201.184 80.476 199.776C79.1533 198.368 78.1293 196.704 77.404 194.784C76.6787 192.864 76.316 190.816 76.316 188.64C76.316 186.379 76.6573 184.267 77.34 182.304C78.0227 180.341 79.0253 178.635 80.348 177.184C81.6707 175.733 83.2493 174.603 85.084 173.792C86.9613 172.939 89.0947 172.512 91.484 172.512C93.66 172.512 95.6867 172.939 97.564 173.792C99.4413 174.645 100.935 176.011 102.044 177.888H102.172V173.28H109.468ZM93.084 179.424C91.7187 179.424 90.4813 179.659 89.372 180.128C88.2627 180.555 87.3027 181.173 86.492 181.984C85.724 182.752 85.1053 183.712 84.636 184.864C84.2093 185.973 83.996 187.211 83.996 188.576C83.996 189.813 84.2093 190.965 84.636 192.032C85.1053 193.099 85.7453 194.037 86.556 194.848C87.3667 195.659 88.3267 196.299 89.436 196.768C90.5453 197.237 91.74 197.472 93.02 197.472C94.428 197.472 95.6867 197.237 96.796 196.768C97.948 196.299 98.908 195.68 99.676 194.912C100.487 194.101 101.105 193.141 101.532 192.032C101.959 190.923 102.172 189.728 102.172 188.448C102.172 185.76 101.361 183.584 99.74 181.92C98.1187 180.256 95.9 179.424 93.084 179.424ZM118.293 173.28H125.973V204H118.293V173.28ZM117.205 162.848C117.205 161.611 117.653 160.544 118.549 159.648C119.487 158.709 120.661 158.24 122.069 158.24C123.477 158.24 124.65 158.688 125.589 159.584C126.57 160.437 127.061 161.525 127.061 162.848C127.061 164.171 126.57 165.28 125.589 166.176C124.65 167.029 123.477 167.456 122.069 167.456C120.661 167.456 119.487 167.008 118.549 166.112C117.653 165.173 117.205 164.085 117.205 162.848ZM134.79 173.28H142.086V178.208H142.214C142.939 176.672 144.048 175.349 145.542 174.24C147.035 173.088 149.062 172.512 151.622 172.512C153.67 172.512 155.398 172.853 156.806 173.536C158.256 174.219 159.43 175.115 160.326 176.224C161.222 177.333 161.862 178.613 162.246 180.064C162.63 181.515 162.822 183.029 162.822 184.608V204H155.142V188.448C155.142 187.595 155.099 186.656 155.014 185.632C154.928 184.565 154.694 183.584 154.31 182.688C153.968 181.749 153.414 180.981 152.646 180.384C151.878 179.744 150.832 179.424 149.51 179.424C148.23 179.424 147.142 179.637 146.246 180.064C145.392 180.491 144.667 181.067 144.07 181.792C143.515 182.517 143.11 183.349 142.854 184.288C142.598 185.227 142.47 186.208 142.47 187.232V204H134.79V173.28ZM190.74 199.776H190.548C189.438 201.525 188.03 202.805 186.324 203.616C184.617 204.384 182.74 204.768 180.692 204.768C179.284 204.768 177.897 204.576 176.532 204.192C175.209 203.808 174.014 203.232 172.948 202.464C171.924 201.696 171.092 200.736 170.452 199.584C169.812 198.432 169.492 197.088 169.492 195.552C169.492 193.888 169.79 192.48 170.388 191.328C170.985 190.133 171.774 189.152 172.756 188.384C173.78 187.573 174.953 186.933 176.276 186.464C177.598 185.995 178.964 185.653 180.372 185.44C181.822 185.184 183.273 185.035 184.724 184.992C186.174 184.907 187.54 184.864 188.82 184.864H190.74V184.032C190.74 182.112 190.078 180.683 188.756 179.744C187.433 178.763 185.748 178.272 183.7 178.272C182.078 178.272 180.564 178.571 179.156 179.168C177.748 179.723 176.532 180.491 175.508 181.472L171.476 177.44C173.182 175.691 175.166 174.432 177.428 173.664C179.732 172.896 182.1 172.512 184.532 172.512C186.708 172.512 188.542 172.768 190.036 173.28C191.529 173.749 192.766 174.368 193.748 175.136C194.729 175.904 195.476 176.8 195.988 177.824C196.542 178.805 196.926 179.808 197.14 180.832C197.396 181.856 197.545 182.859 197.588 183.84C197.63 184.779 197.652 185.611 197.652 186.336V204H190.74V199.776ZM190.292 190.24H188.692C187.625 190.24 186.43 190.283 185.108 190.368C183.785 190.453 182.526 190.667 181.332 191.008C180.18 191.307 179.198 191.776 178.388 192.416C177.577 193.013 177.172 193.867 177.172 194.976C177.172 195.701 177.321 196.32 177.62 196.832C177.961 197.301 178.388 197.707 178.9 198.048C179.412 198.389 179.988 198.645 180.628 198.816C181.268 198.944 181.908 199.008 182.548 199.008C185.193 199.008 187.134 198.389 188.372 197.152C189.652 195.872 190.292 194.144 190.292 191.968V190.24ZM230.996 191.328C231.252 193.632 232.148 195.424 233.684 196.704C235.22 197.984 237.076 198.624 239.252 198.624C241.172 198.624 242.772 198.24 244.052 197.472C245.375 196.661 246.527 195.659 247.508 194.464L253.012 198.624C251.22 200.843 249.215 202.421 246.996 203.36C244.777 204.299 242.452 204.768 240.02 204.768C237.716 204.768 235.54 204.384 233.492 203.616C231.444 202.848 229.673 201.76 228.18 200.352C226.687 198.944 225.492 197.259 224.596 195.296C223.743 193.291 223.316 191.072 223.316 188.64C223.316 186.208 223.743 184.011 224.596 182.048C225.492 180.043 226.687 178.336 228.18 176.928C229.673 175.52 231.444 174.432 233.492 173.664C235.54 172.896 237.716 172.512 240.02 172.512C242.153 172.512 244.095 172.896 245.844 173.664C247.636 174.389 249.151 175.456 250.388 176.864C251.668 178.272 252.649 180.021 253.332 182.112C254.057 184.16 254.42 186.528 254.42 189.216V191.328H230.996ZM246.74 185.568C246.697 183.307 245.993 181.536 244.628 180.256C243.263 178.933 241.364 178.272 238.932 178.272C236.628 178.272 234.793 178.933 233.428 180.256C232.105 181.579 231.295 183.349 230.996 185.568H246.74ZM261.602 173.28H268.898V178.208H269.026C269.751 176.672 270.861 175.349 272.354 174.24C273.847 173.088 275.874 172.512 278.434 172.512C280.482 172.512 282.21 172.853 283.618 173.536C285.069 174.219 286.242 175.115 287.138 176.224C288.034 177.333 288.674 178.613 289.058 180.064C289.442 181.515 289.634 183.029 289.634 184.608V204H281.954V188.448C281.954 187.595 281.911 186.656 281.826 185.632C281.741 184.565 281.506 183.584 281.122 182.688C280.781 181.749 280.226 180.981 279.458 180.384C278.69 179.744 277.645 179.424 276.322 179.424C275.042 179.424 273.954 179.637 273.058 180.064C272.205 180.491 271.479 181.067 270.882 181.792C270.327 182.517 269.922 183.349 269.666 184.288C269.41 185.227 269.282 186.208 269.282 187.232V204H261.602V173.28ZM25.344 245.496C24.448 244.557 23.5093 243.811 22.528 243.256C21.5467 242.701 20.544 242.424 19.52 242.424C18.112 242.424 16.8533 242.68 15.744 243.192C14.6347 243.704 13.6747 244.387 12.864 245.24C12.096 246.093 11.4987 247.075 11.072 248.184C10.688 249.293 10.496 250.445 10.496 251.64C10.496 252.835 10.688 253.987 11.072 255.096C11.4987 256.205 12.096 257.187 12.864 258.04C13.6747 258.893 14.6347 259.576 15.744 260.088C16.8533 260.6 18.112 260.856 19.52 260.856C20.7147 260.856 21.824 260.621 22.848 260.152C23.872 259.64 24.7467 258.915 25.472 257.976L30.592 263.48C29.824 264.248 28.928 264.909 27.904 265.464C26.9227 266.019 25.92 266.467 24.896 266.808C23.872 267.149 22.8907 267.384 21.952 267.512C21.0133 267.683 20.2027 267.768 19.52 267.768C17.216 267.768 15.04 267.384 12.992 266.616C10.944 265.848 9.17333 264.76 7.68 263.352C6.18667 261.944 4.992 260.259 4.096 258.296C3.24267 256.291 2.816 254.072 2.816 251.64C2.816 249.208 3.24267 247.011 4.096 245.048C4.992 243.043 6.18667 241.336 7.68 239.928C9.17333 238.52 10.944 237.432 12.992 236.664C15.04 235.896 17.216 235.512 19.52 235.512C21.4827 235.512 23.4453 235.896 25.408 236.664C27.4133 237.389 29.1627 238.563 30.656 240.184L25.344 245.496ZM33.691 251.64C33.691 249.208 34.1177 247.011 34.971 245.048C35.867 243.043 37.0617 241.336 38.555 239.928C40.0483 238.52 41.819 237.432 43.867 236.664C45.915 235.896 48.091 235.512 50.395 235.512C52.699 235.512 54.875 235.896 56.923 236.664C58.971 237.432 60.7417 238.52 62.235 239.928C63.7283 241.336 64.9017 243.043 65.755 245.048C66.651 247.011 67.099 249.208 67.099 251.64C67.099 254.072 66.651 256.291 65.755 258.296C64.9017 260.259 63.7283 261.944 62.235 263.352C60.7417 264.76 58.971 265.848 56.923 266.616C54.875 267.384 52.699 267.768 50.395 267.768C48.091 267.768 45.915 267.384 43.867 266.616C41.819 265.848 40.0483 264.76 38.555 263.352C37.0617 261.944 35.867 260.259 34.971 258.296C34.1177 256.291 33.691 254.072 33.691 251.64ZM41.371 251.64C41.371 252.835 41.563 253.987 41.947 255.096C42.3737 256.205 42.971 257.187 43.739 258.04C44.5497 258.893 45.5097 259.576 46.619 260.088C47.7283 260.6 48.987 260.856 50.395 260.856C51.803 260.856 53.0617 260.6 54.171 260.088C55.2803 259.576 56.219 258.893 56.987 258.04C57.7977 257.187 58.395 256.205 58.779 255.096C59.2057 253.987 59.419 252.835 59.419 251.64C59.419 250.445 59.2057 249.293 58.779 248.184C58.395 247.075 57.7977 246.093 56.987 245.24C56.219 244.387 55.2803 243.704 54.171 243.192C53.0617 242.68 51.803 242.424 50.395 242.424C48.987 242.424 47.7283 242.68 46.619 243.192C45.5097 243.704 44.5497 244.387 43.739 245.24C42.971 246.093 42.3737 247.075 41.947 248.184C41.563 249.293 41.371 250.445 41.371 251.64ZM74.2895 236.28H81.5855V241.208H81.7135C82.4388 239.672 83.5482 238.349 85.0415 237.24C86.5348 236.088 88.5615 235.512 91.1215 235.512C93.1695 235.512 94.8975 235.853 96.3055 236.536C97.7562 237.219 98.9295 238.115 99.8255 239.224C100.722 240.333 101.362 241.613 101.746 243.064C102.13 244.515 102.322 246.029 102.322 247.608V267H94.6415V251.448C94.6415 250.595 94.5988 249.656 94.5135 248.632C94.4282 247.565 94.1935 246.584 93.8095 245.688C93.4682 244.749 92.9135 243.981 92.1455 243.384C91.3775 242.744 90.3322 242.424 89.0095 242.424C87.7295 242.424 86.6415 242.637 85.7455 243.064C84.8922 243.491 84.1668 244.067 83.5695 244.792C83.0148 245.517 82.6095 246.349 82.3535 247.288C82.0975 248.227 81.9695 249.208 81.9695 250.232V267H74.2895V236.28ZM127.424 244.792C125.93 242.701 123.925 241.656 121.408 241.656C120.384 241.656 119.381 241.912 118.4 242.424C117.418 242.936 116.928 243.768 116.928 244.92C116.928 245.859 117.333 246.541 118.144 246.968C118.954 247.395 119.978 247.757 121.216 248.056C122.453 248.355 123.776 248.675 125.184 249.016C126.634 249.315 127.978 249.805 129.216 250.488C130.453 251.128 131.477 252.024 132.288 253.176C133.098 254.328 133.504 255.907 133.504 257.912C133.504 259.747 133.098 261.304 132.288 262.584C131.52 263.821 130.496 264.824 129.216 265.592C127.978 266.36 126.57 266.915 124.992 267.256C123.413 267.597 121.834 267.768 120.256 267.768C117.866 267.768 115.669 267.427 113.664 266.744C111.658 266.061 109.866 264.824 108.288 263.032L113.408 258.232C114.389 259.341 115.434 260.259 116.544 260.984C117.696 261.667 119.082 262.008 120.704 262.008C121.258 262.008 121.834 261.944 122.432 261.816C123.029 261.688 123.584 261.475 124.096 261.176C124.608 260.877 125.013 260.515 125.312 260.088C125.653 259.619 125.824 259.085 125.824 258.488C125.824 257.421 125.418 256.632 124.608 256.12C123.797 255.608 122.773 255.203 121.536 254.904C120.298 254.563 118.954 254.264 117.504 254.008C116.096 253.709 114.773 253.261 113.536 252.664C112.298 252.024 111.274 251.149 110.464 250.04C109.653 248.931 109.248 247.395 109.248 245.432C109.248 243.725 109.589 242.253 110.272 241.016C110.997 239.736 111.936 238.691 113.088 237.88C114.24 237.069 115.562 236.472 117.056 236.088C118.549 235.704 120.064 235.512 121.6 235.512C123.648 235.512 125.674 235.875 127.68 236.6C129.685 237.283 131.306 238.477 132.544 240.184L127.424 244.792ZM135.893 242.808V236.28H142.229V227.384H149.909V236.28H158.357V242.808H149.909V256.248C149.909 257.784 150.186 259 150.741 259.896C151.338 260.792 152.49 261.24 154.197 261.24C154.88 261.24 155.626 261.176 156.437 261.048C157.248 260.877 157.888 260.621 158.357 260.28V266.744C157.546 267.128 156.544 267.384 155.349 267.512C154.197 267.683 153.173 267.768 152.277 267.768C150.229 267.768 148.544 267.533 147.221 267.064C145.941 266.637 144.917 265.976 144.149 265.08C143.424 264.141 142.912 262.989 142.613 261.624C142.357 260.259 142.229 258.68 142.229 256.888V242.808H135.893ZM164.352 236.28H172.032V241.144H172.16C173.013 239.352 174.229 237.965 175.808 236.984C177.387 236.003 179.2 235.512 181.248 235.512C181.717 235.512 182.165 235.555 182.592 235.64C183.061 235.725 183.531 235.832 184 235.96V243.384C183.36 243.213 182.72 243.085 182.08 243C181.483 242.872 180.885 242.808 180.288 242.808C178.496 242.808 177.045 243.149 175.936 243.832C174.869 244.472 174.037 245.219 173.44 246.072C172.885 246.925 172.501 247.779 172.288 248.632C172.117 249.485 172.032 250.125 172.032 250.552V267H164.352V236.28ZM217.259 267H209.963V262.072H209.835C209.11 263.608 208 264.952 206.507 266.104C205.014 267.213 202.987 267.768 200.427 267.768C198.379 267.768 196.63 267.448 195.179 266.808C193.771 266.125 192.619 265.229 191.723 264.12C190.827 262.968 190.187 261.667 189.803 260.216C189.419 258.765 189.227 257.251 189.227 255.672V236.28H196.907V251.832C196.907 252.685 196.95 253.645 197.035 254.712C197.12 255.736 197.334 256.717 197.675 257.656C198.059 258.552 198.614 259.32 199.339 259.96C200.107 260.557 201.174 260.856 202.539 260.856C203.819 260.856 204.886 260.643 205.739 260.216C206.635 259.789 207.36 259.213 207.915 258.488C208.512 257.763 208.939 256.931 209.195 255.992C209.451 255.053 209.579 254.072 209.579 253.048V236.28H217.259V267ZM246.969 245.496C246.073 244.557 245.134 243.811 244.153 243.256C243.172 242.701 242.169 242.424 241.145 242.424C239.737 242.424 238.478 242.68 237.369 243.192C236.26 243.704 235.3 244.387 234.489 245.24C233.721 246.093 233.124 247.075 232.697 248.184C232.313 249.293 232.121 250.445 232.121 251.64C232.121 252.835 232.313 253.987 232.697 255.096C233.124 256.205 233.721 257.187 234.489 258.04C235.3 258.893 236.26 259.576 237.369 260.088C238.478 260.6 239.737 260.856 241.145 260.856C242.34 260.856 243.449 260.621 244.473 260.152C245.497 259.64 246.372 258.915 247.097 257.976L252.217 263.48C251.449 264.248 250.553 264.909 249.529 265.464C248.548 266.019 247.545 266.467 246.521 266.808C245.497 267.149 244.516 267.384 243.577 267.512C242.638 267.683 241.828 267.768 241.145 267.768C238.841 267.768 236.665 267.384 234.617 266.616C232.569 265.848 230.798 264.76 229.305 263.352C227.812 261.944 226.617 260.259 225.721 258.296C224.868 256.291 224.441 254.072 224.441 251.64C224.441 249.208 224.868 247.011 225.721 245.048C226.617 243.043 227.812 241.336 229.305 239.928C230.798 238.52 232.569 237.432 234.617 236.664C236.665 235.896 238.841 235.512 241.145 235.512C243.108 235.512 245.07 235.896 247.033 236.664C249.038 237.389 250.788 238.563 252.281 240.184L246.969 245.496ZM277.844 245.496C276.948 244.557 276.009 243.811 275.028 243.256C274.047 242.701 273.044 242.424 272.02 242.424C270.612 242.424 269.353 242.68 268.244 243.192C267.135 243.704 266.175 244.387 265.364 245.24C264.596 246.093 263.999 247.075 263.572 248.184C263.188 249.293 262.996 250.445 262.996 251.64C262.996 252.835 263.188 253.987 263.572 255.096C263.999 256.205 264.596 257.187 265.364 258.04C266.175 258.893 267.135 259.576 268.244 260.088C269.353 260.6 270.612 260.856 272.02 260.856C273.215 260.856 274.324 260.621 275.348 260.152C276.372 259.64 277.247 258.915 277.972 257.976L283.092 263.48C282.324 264.248 281.428 264.909 280.404 265.464C279.423 266.019 278.42 266.467 277.396 266.808C276.372 267.149 275.391 267.384 274.452 267.512C273.513 267.683 272.703 267.768 272.02 267.768C269.716 267.768 267.54 267.384 265.492 266.616C263.444 265.848 261.673 264.76 260.18 263.352C258.687 261.944 257.492 260.259 256.596 258.296C255.743 256.291 255.316 254.072 255.316 251.64C255.316 249.208 255.743 247.011 256.596 245.048C257.492 243.043 258.687 241.336 260.18 239.928C261.673 238.52 263.444 237.432 265.492 236.664C267.54 235.896 269.716 235.512 272.02 235.512C273.983 235.512 275.945 235.896 277.908 236.664C279.913 237.389 281.663 238.563 283.156 240.184L277.844 245.496ZM287.855 236.28H295.535V267H287.855V236.28ZM286.767 225.848C286.767 224.611 287.215 223.544 288.111 222.648C289.05 221.709 290.223 221.24 291.631 221.24C293.039 221.24 294.212 221.688 295.151 222.584C296.132 223.437 296.623 224.525 296.623 225.848C296.623 227.171 296.132 228.28 295.151 229.176C294.212 230.029 293.039 230.456 291.631 230.456C290.223 230.456 289.05 230.008 288.111 229.112C287.215 228.173 286.767 227.085 286.767 225.848ZM302.816 251.64C302.816 249.208 303.243 247.011 304.096 245.048C304.992 243.043 306.187 241.336 307.68 239.928C309.173 238.52 310.944 237.432 312.992 236.664C315.04 235.896 317.216 235.512 319.52 235.512C321.824 235.512 324 235.896 326.048 236.664C328.096 237.432 329.867 238.52 331.36 239.928C332.853 241.336 334.027 243.043 334.88 245.048C335.776 247.011 336.224 249.208 336.224 251.64C336.224 254.072 335.776 256.291 334.88 258.296C334.027 260.259 332.853 261.944 331.36 263.352C329.867 264.76 328.096 265.848 326.048 266.616C324 267.384 321.824 267.768 319.52 267.768C317.216 267.768 315.04 267.384 312.992 266.616C310.944 265.848 309.173 264.76 307.68 263.352C306.187 261.944 304.992 260.259 304.096 258.296C303.243 256.291 302.816 254.072 302.816 251.64ZM310.496 251.64C310.496 252.835 310.688 253.987 311.072 255.096C311.499 256.205 312.096 257.187 312.864 258.04C313.675 258.893 314.635 259.576 315.744 260.088C316.853 260.6 318.112 260.856 319.52 260.856C320.928 260.856 322.187 260.6 323.296 260.088C324.405 259.576 325.344 258.893 326.112 258.04C326.923 257.187 327.52 256.205 327.904 255.096C328.331 253.987 328.544 252.835 328.544 251.64C328.544 250.445 328.331 249.293 327.904 248.184C327.52 247.075 326.923 246.093 326.112 245.24C325.344 244.387 324.405 243.704 323.296 243.192C322.187 242.68 320.928 242.424 319.52 242.424C318.112 242.424 316.853 242.68 315.744 243.192C314.635 243.704 313.675 244.387 312.864 245.24C312.096 246.093 311.499 247.075 311.072 248.184C310.688 249.293 310.496 250.445 310.496 251.64ZM322.848 221.688H331.552L322.528 230.904H316.512L322.848 221.688ZM343.415 236.28H350.711V241.208H350.839C351.564 239.672 352.673 238.349 354.167 237.24C355.66 236.088 357.687 235.512 360.247 235.512C362.295 235.512 364.023 235.853 365.431 236.536C366.881 237.219 368.055 238.115 368.951 239.224C369.847 240.333 370.487 241.613 370.871 243.064C371.255 244.515 371.447 246.029 371.447 247.608V267H363.767V251.448C363.767 250.595 363.724 249.656 363.639 248.632C363.553 247.565 363.319 246.584 362.935 245.688C362.593 244.749 362.039 243.981 361.271 243.384C360.503 242.744 359.457 242.424 358.135 242.424C356.855 242.424 355.767 242.637 354.871 243.064C354.017 243.491 353.292 244.067 352.695 244.792C352.14 245.517 351.735 246.349 351.479 247.288C351.223 248.227 351.095 249.208 351.095 250.232V267H343.415V236.28Z" fill="#462687"/>
</svg>
